<?xml version="1.0" encoding="utf-8"?>
<!-- Generator: Adobe Illustrator 27.7.0, SVG Export Plug-In . SVG Version: 6.00 Build 0)  -->
<svg version="1.1" id="Layer_1" xmlns="http://www.w3.org/2000/svg" xmlns:xlink="http://www.w3.org/1999/xlink" x="0px" y="0px"
	 viewBox="0 0 700.2 168.8" style="enable-background:new 0 0 700.2 168.8;" xml:space="preserve">
<style type="text/css">
	.st0{fill:#9C2023;}
	.st1{fill-rule:evenodd;clip-rule:evenodd;}
</style>
<g>
	<g>
		<path class="st0" d="M139.4,139.8c0,0,22.4-39.1,2.9-89.8c0,0-9.5-22.9-27.1-32.3c0,0-18,2.7-24.2,23.3c0,0-6.8,18.7,13.8,35.6
			c0,0,19.4,12.7,28,20.6C132.7,97.2,149,109.4,139.4,139.8z"/>
		<path class="st0" d="M87.6,168.8c0,0,24-17.9,14.6-46.5c0,0-3.6-12.3-22.9-22.3c0,0-27.8-13.7-26.9-45.1c0,0-3.7-41.2,39.2-50.3
			c0,0-34.8-15.1-65.2,9.8c0,0-32.4,22.5-25.3,73.2c0,0,4.6,38,35.3,62.4C36.3,150,54.8,168.3,87.6,168.8z"/>
	</g>
	<g>
		<polygon class="st1" points="353.3,67.9 368.5,67.9 382.2,50.8 395.1,67.9 410.4,67.9 388.6,39.6 388.6,29.6 406.9,29.6 
			406.9,18.8 357.2,18.8 357.2,29.6 375.5,29.6 375.5,39.1 		"/>
		<polygon class="st1" points="404,37.2 404,48 419.3,48 419.3,69.9 432.5,69.9 432.5,18.3 419.3,18.3 419.3,37.2 		"/>
		<path class="st1" d="M417,74.1h-37.2c-9.6,0-17.5,7.8-17.5,17.5v0c0,9.6,7.8,17.5,17.5,17.5H417c9.6,0,17.5-7.8,17.5-17.5v0
			C434.4,81.9,426.6,74.1,417,74.1z M414.3,99.6h-31.9c-4.4,0-8-3.6-8-8s3.6-8,8-8h31.9c4.4,0,8,3.6,8,8S418.7,99.6,414.3,99.6z"/>
	</g>
	<g>
		<polygon class="st1" points="489.8,92.4 489.8,78.8 477.3,78.8 477.3,92.4 444.3,92.4 444.3,104.1 523.6,104.1 523.6,92.4 		"/>
		<path class="st1" d="M505,70.6v5.5h12.5V18.8H505V34h-42.2V18.8h-12.5v57.3h12.5C462.8,76.1,489.8,75.7,505,70.6z M505,45.8v12.7
			c-3.5,1.3-20,6.7-42.2,6.3V45.8H505z"/>
	</g>
	<g>
		<rect x="594.1" y="18.8" class="st1" width="13.2" height="88"/>
		<path class="st1" d="M565.5,30.3h-33.7V19.4h46.9v28c0,0-0.8,29.5-25.8,55.4h-16.4c0,0,25.4-23.3,28.9-54.4L565.5,30.3z"/>
	</g>
	<g>
		<polygon class="st1" points="660.3,34 682.7,51.4 700.2,51.4 667,24.3 667,13.8 620.5,51.4 637.8,51.4 		"/>
		<path class="st1" d="M620.5,65.7h33.7v7.2h-27.6v8.5h53.9v4.8h-54.5v1.1v7.4v13.9H639c38.9,0.3,56.3-1.8,56.3-1.8v-7.6
			c-6.4,1.2-49.9,0.9-56.3,0.8v-5.4h53.7v-2.3h0v-11v-6.9v-1.6h-26.3v-7.2h33.7v-9.3h-79.7V65.7z"/>
	</g>
	<g>
		<polygon class="st1" points="314,44.8 300.8,44.8 300.8,57.1 267.6,57.1 267.6,67.9 347.1,67.9 347.1,57.1 314,57.1 		"/>
		<polygon class="st1" points="307.4,33.9 329.3,51.5 347.1,51.5 314,25 314,13.5 267.6,51.5 285.1,51.5 		"/>
		<path class="st1" d="M285.8,100.1v-5.4h53.7v-2.3h0v-11v-6.9v-1.6h-66.2v8.5h53.9v4.8h-54.5v1.1v7.4v13.9h13.2
			c38.9,0.3,56.3-1.8,56.3-1.8v-7.6C335.8,100.4,292.2,100.1,285.8,100.1z"/>
	</g>
	<g>
		<rect x="186.4" y="17.6" class="st1" width="27.1" height="10.8"/>
		<rect x="176.9" y="34.3" class="st1" width="43.8" height="10.5"/>
		<polygon class="st1" points="245.5,18.8 245.5,52.1 238.1,52.1 238.1,18.8 224.9,18.8 224.9,107 238.1,107 238.1,62.9 245.5,62.9 
			245.5,107 258.7,107 258.7,18.8 		"/>
		<path class="st1" d="M199.6,49.1L199.6,49.1c-10.5,0-19.1,8.5-19.1,19.1v3.1c0,10.5,8.5,19.1,19.1,19.1h0
			c10.5,0,19.1-8.5,19.1-19.1v-3.1C218.7,57.7,210.2,49.1,199.6,49.1z M206.2,73.3c0,3.6-3,6.6-6.6,6.6s-6.6-3-6.6-6.6v-7.1
			c0-3.6,3-6.6,6.6-6.6s6.6,3,6.6,6.6V73.3z"/>
	</g>
	<g>
		<g>
			<path d="M186.5,151.8h-6.4v-24h6.4V151.8z"/>
			<path d="M214.6,151.8h-5l-13.7-18.3v18.3h-2.4v-24h4.9l13.9,18.3v-18.3h2.3V151.8z"/>
			<path d="M240.1,129.5H228v8.8h10.3v1.8H228v11.7h-6.4v-24h18.5V129.5z"/>
			<path d="M256.1,127.3c2.1,0,4,0.3,5.8,1c1.7,0.7,3.1,1.6,4.2,2.8c0.8,0.9,1.4,2.1,1.8,3.6s0.7,3.1,0.7,4.9
				c0,4.8-1.4,8.1-4.1,10.1c-2.3,1.6-5.1,2.4-8.6,2.4c-2.2,0-4.2-0.3-6-1c-1.8-0.7-3.2-1.6-4.2-2.8c-0.8-0.9-1.4-2.1-1.8-3.7
				c-0.5-1.6-0.7-3.3-0.7-5.1c0-2.3,0.3-4.2,1-5.9c0.7-1.7,1.7-3,3.1-4C249.5,128.1,252.5,127.3,256.1,127.3z M255.7,128.7
				c-1,0-1.9,0.2-2.8,0.6c-0.8,0.4-1.4,1-1.8,1.8c-0.2,0.5-0.4,0.9-0.6,1.5c-0.1,0.5-0.3,1.1-0.4,1.8c-0.1,0.7-0.2,1.4-0.2,2.3
				c0,0.9,0,1.9,0,3s0,2.2,0,3c0,0.9,0.1,1.6,0.2,2.3c0.1,0.7,0.2,1.3,0.4,1.8c0.1,0.5,0.3,1,0.6,1.5c0.4,0.8,1,1.4,1.8,1.8
				c0.8,0.4,1.8,0.6,2.8,0.6c1.1,0,2-0.2,2.8-0.6c0.8-0.4,1.4-1,1.8-1.8c0.2-0.5,0.4-0.9,0.6-1.5c0.1-0.5,0.3-1.1,0.4-1.8
				c0.1-0.7,0.2-1.4,0.2-2.2c0-0.8,0-1.8,0-2.9c0-1.2,0-2.3,0-3.2c0-0.9-0.1-1.7-0.2-2.4c-0.1-0.7-0.2-1.3-0.4-1.8
				c-0.1-0.5-0.3-1-0.6-1.4C259.6,129.5,258.1,128.7,255.7,128.7z"/>
			<path d="M301.4,151.8H295v-18.8l-7.3,18.8h-4l-7.2-18.5v18.5h-2.4v-24h6.7l6.9,17.8l7-17.8h6.7V151.8z"/>
			<path d="M329.6,151.8H323l-2.1-5.7h-10.6l-2.2,5.7h-2.6l9.5-24h5.5L329.6,151.8z M320.3,144.3l-4.5-12.2l-4.8,12.2H320.3z"/>
			<path d="M350.7,129.5H343v22.2h-6.8v-22.2h-7.8v-1.8h22.3V129.5z"/>
			<path d="M361.2,151.8h-6.4v-24h6.4V151.8z"/>
			<path d="M380,127.3c2.1,0,4,0.3,5.8,1c1.7,0.7,3.1,1.6,4.2,2.8c0.8,0.9,1.4,2.1,1.8,3.6c0.4,1.5,0.7,3.1,0.7,4.9
				c0,4.8-1.4,8.1-4.1,10.1c-2.3,1.6-5.1,2.4-8.6,2.4c-2.2,0-4.2-0.3-6-1c-1.8-0.7-3.2-1.6-4.2-2.8c-0.8-0.9-1.4-2.1-1.8-3.7
				c-0.5-1.6-0.7-3.3-0.7-5.1c0-2.3,0.3-4.2,1-5.9c0.7-1.7,1.7-3,3.1-4C373.5,128.1,376.4,127.3,380,127.3z M379.7,128.7
				c-1,0-1.9,0.2-2.7,0.6s-1.4,1-1.8,1.8c-0.2,0.5-0.4,0.9-0.6,1.5c-0.1,0.5-0.3,1.1-0.4,1.8c-0.1,0.7-0.2,1.4-0.2,2.3s0,1.9,0,3
				s0,2.2,0,3c0,0.9,0.1,1.6,0.2,2.3s0.2,1.3,0.4,1.8c0.1,0.5,0.3,1,0.6,1.5c0.4,0.8,1,1.4,1.8,1.8c0.8,0.4,1.8,0.6,2.8,0.6
				c1.1,0,2-0.2,2.8-0.6c0.8-0.4,1.4-1,1.8-1.8c0.2-0.5,0.4-0.9,0.6-1.5c0.1-0.5,0.3-1.1,0.4-1.8c0.1-0.7,0.2-1.4,0.2-2.2
				c0-0.8,0-1.8,0-2.9c0-1.2,0-2.3,0-3.2c0-0.9-0.1-1.7-0.2-2.4c-0.1-0.7-0.2-1.3-0.4-1.8c-0.1-0.5-0.3-1-0.6-1.4
				C383.6,129.5,382,128.7,379.7,128.7z"/>
			<path d="M419.1,151.8h-5l-13.7-18.3v18.3h-2.4v-24h4.9l13.9,18.3v-18.3h2.3V151.8z"/>
		</g>
		<g>
			<path d="M452.9,129.5h-7.5v22.2h-6.6v-22.2h-7.5v-1.8h21.6V129.5z"/>
			<path d="M475.3,129.5h-11.6v8.2h9.8v1.7h-9.8V150H477v1.8h-19.7v-24h17.9V129.5z"/>
			<path d="M504.8,143.2c0,0.3,0.1,0.5,0.1,0.8c0,0.2,0,0.4,0,0.5c0,1.1-0.3,2.2-1,3.3c-0.7,1.1-1.6,2-2.8,2.8
				c-1.7,1.1-4.2,1.7-7.6,1.7c-4.3,0-7.6-1.2-9.7-3.5c-0.9-1-1.6-2.2-2.2-3.7c-0.5-1.5-0.8-3-0.8-4.6c0-2.3,0.4-4.3,1.3-6
				s2.1-3.2,3.7-4.3c2.5-1.8,5.4-2.6,8.8-2.6c1.8,0,3.4,0.3,4.8,0.8c1.4,0.5,2.5,1.3,3.3,2.2c0.4,0.6,0.7,1.1,0.9,1.7
				c0.2,0.6,0.3,1.3,0.3,2.3l-2.8,1.1c0-0.2,0-0.5,0-0.7s0-0.4,0-0.6c0-1.7-0.6-3.1-1.9-4c-1.3-0.9-2.7-1.4-4.4-1.4
				c-3.1,0-5.2,1.4-6.5,4.2c-0.3,0.7-0.6,1.7-0.8,2.9c-0.2,1.2-0.3,2.6-0.3,4c0,4,0.8,6.9,2.3,8.4c1.4,1.4,3.2,2.1,5.5,2.1
				c1,0,1.9-0.2,2.7-0.5s1.6-0.7,2.2-1.3c0.6-0.5,1.1-1.2,1.5-1.9c0.3-0.7,0.5-1.5,0.5-2.4c0-0.2,0-0.5,0-0.9s-0.1-0.7-0.1-1.1
				L504.8,143.2z"/>
			<path d="M516.8,151.8h-6.2v-24h6.2v10h10v-10h6.2v24h-6.2v-12.2h-10V151.8z"/>
			<path d="M560.8,151.8h-4.8l-13.3-18.3v18.3h-2.3v-24h4.7l13.5,18.3v-18.3h2.2V151.8z"/>
			<path d="M579.4,127.3c2.1,0,3.9,0.3,5.6,1c1.7,0.7,3,1.6,4,2.8c0.7,0.9,1.3,2.1,1.8,3.6c0.4,1.5,0.7,3.1,0.7,4.9
				c0,4.8-1.3,8.1-4,10.1c-2.2,1.6-5,2.4-8.3,2.4c-2.2,0-4.1-0.3-5.8-1c-1.7-0.7-3.1-1.6-4.1-2.8c-0.7-0.9-1.3-2.1-1.8-3.7
				c-0.4-1.6-0.7-3.3-0.7-5.1c0-2.3,0.3-4.2,1-5.9c0.7-1.7,1.7-3,3-4C573.1,128.1,575.9,127.3,579.4,127.3z M579.1,128.7
				c-1,0-1.9,0.2-2.7,0.6c-0.8,0.4-1.4,1-1.7,1.8c-0.2,0.5-0.4,0.9-0.5,1.5s-0.3,1.1-0.4,1.8c-0.1,0.7-0.2,1.4-0.2,2.3
				c0,0.9,0,1.9,0,3c0,1.2,0,2.2,0,3c0,0.9,0.1,1.6,0.2,2.3c0.1,0.7,0.2,1.3,0.4,1.8s0.3,1,0.5,1.5c0.4,0.8,1,1.4,1.7,1.8
				c0.8,0.4,1.7,0.6,2.8,0.6s2-0.2,2.8-0.6c0.8-0.4,1.4-1,1.7-1.8c0.2-0.5,0.4-0.9,0.5-1.5s0.3-1.1,0.4-1.8c0.1-0.7,0.2-1.4,0.2-2.2
				c0-0.8,0-1.8,0-2.9c0-1.2,0-2.3,0-3.2c0-0.9-0.1-1.7-0.2-2.4c-0.1-0.7-0.2-1.3-0.4-1.8s-0.3-1-0.5-1.4
				C582.9,129.5,581.3,128.7,579.1,128.7z"/>
			<path d="M603.9,150h13.3v1.8h-19.5v-24h6.2V150z"/>
			<path d="M631.6,127.3c2.1,0,3.9,0.3,5.6,1c1.7,0.7,3,1.6,4,2.8c0.7,0.9,1.3,2.1,1.8,3.6c0.4,1.5,0.7,3.1,0.7,4.9
				c0,4.8-1.3,8.1-4,10.1c-2.2,1.6-5,2.4-8.3,2.4c-2.2,0-4.1-0.3-5.8-1c-1.7-0.7-3.1-1.6-4.1-2.8c-0.7-0.9-1.3-2.1-1.8-3.7
				c-0.4-1.6-0.7-3.3-0.7-5.1c0-2.3,0.3-4.2,1-5.9c0.7-1.7,1.7-3,3-4C625.3,128.1,628.1,127.3,631.6,127.3z M631.3,128.7
				c-1,0-1.9,0.2-2.7,0.6c-0.8,0.4-1.4,1-1.7,1.8c-0.2,0.5-0.4,0.9-0.5,1.5s-0.3,1.1-0.4,1.8c-0.1,0.7-0.2,1.4-0.2,2.3
				c0,0.9,0,1.9,0,3c0,1.2,0,2.2,0,3c0,0.9,0.1,1.6,0.2,2.3c0.1,0.7,0.2,1.3,0.4,1.8s0.3,1,0.5,1.5c0.4,0.8,1,1.4,1.7,1.8
				c0.8,0.4,1.7,0.6,2.8,0.6s2-0.2,2.8-0.6c0.8-0.4,1.4-1,1.7-1.8c0.2-0.5,0.4-0.9,0.5-1.5s0.3-1.1,0.4-1.8c0.1-0.7,0.2-1.4,0.2-2.2
				c0-0.8,0-1.8,0-2.9c0-1.2,0-2.3,0-3.2c0-0.9-0.1-1.7-0.2-2.4c-0.1-0.7-0.2-1.3-0.4-1.8s-0.3-1-0.5-1.4
				C635.1,129.5,633.5,128.7,631.3,128.7z"/>
			<path d="M672.9,139.3v12.5H671l-0.9-1.7c-0.7,0.4-1.4,0.8-1.9,1.1c-0.6,0.3-1.2,0.5-1.8,0.7c-0.6,0.2-1.2,0.3-1.8,0.3
				c-0.6,0.1-1.4,0.1-2.3,0.1c-2.7,0-4.8-0.3-6.5-0.9c-1.7-0.6-3.1-1.6-4.3-3c-0.9-1.1-1.6-2.4-2.1-3.9c-0.5-1.5-0.8-3-0.8-4.5
				c0-1.9,0.3-3.6,1-5.1c0.7-1.5,1.6-2.9,2.8-4s2.7-1.9,4.4-2.5c1.7-0.6,3.6-0.9,5.7-0.9c1.7,0,3.3,0.3,4.6,0.8
				c1.4,0.5,2.4,1.2,3.2,2.1c0.4,0.5,0.7,1,1,1.6c0.2,0.6,0.5,1.4,0.7,2.3l-3,1.1v-0.4c0-1-0.1-1.8-0.3-2.4s-0.6-1.2-1.1-1.7
				c-1.1-1.2-2.7-1.7-4.6-1.7c-1.6,0-2.9,0.4-4.1,1.1s-2,1.7-2.5,3c-0.3,0.6-0.5,1.6-0.7,2.7c-0.2,1.2-0.2,2.5-0.2,4.1
				c0,2.1,0.1,3.9,0.4,5.2c0.2,1.3,0.7,2.4,1.2,3.1c1.3,1.8,3.1,2.6,5.6,2.6c1.3,0,2.4-0.3,3.2-0.8s1.2-1.3,1.2-2.2V141h-6.5v-1.8
				H672.9z"/>
			<path d="M690.3,142.9v8.9h-6.2v-8.9l-8.8-15.1h6.6l7.2,12.5l6.1-12.5h2.5L690.3,142.9z"/>
		</g>
	</g>
</g>
</svg>
